<svg width="15" height="19" viewBox="0 0 15 19" fill="none" xmlns="http://www.w3.org/2000/svg">
<g >
<path d="M6.26875 12.4204C6.11983 12.9954 5.9481 13.5526 5.83361 14.1213C5.48025 15.8775 4.70897 17.436 3.58045 18.8315C3.52105 18.905 3.41776 18.9447 3.33469 19C3.29079 18.9126 3.22106 18.8285 3.20772 18.7368C3.05019 17.6739 2.9697 16.6029 3.12895 15.5374C3.24172 14.7808 3.43282 14.0347 3.60799 13.2882C3.94414 11.856 4.29621 10.4276 4.63279 8.99539C4.66076 8.87541 4.64699 8.7305 4.6061 8.61263C4.27254 7.64896 4.21271 6.68529 4.58458 5.71909C4.74684 5.29704 4.99346 4.9261 5.35888 4.64643C5.90463 4.2286 6.51322 4.10101 7.15323 4.38829C7.77 4.66544 7.99854 5.2231 7.96368 5.83443C7.9314 6.39674 7.7941 6.95864 7.65336 7.5087C7.46829 8.23071 7.23027 8.93962 7.02239 9.65657C6.63847 10.9823 7.72911 12.0245 9.06982 11.8365C9.81442 11.7318 10.3851 11.338 10.8482 10.7808C11.5619 9.92273 11.9174 8.90963 12.1123 7.83781C12.2755 6.94047 12.3697 6.03299 12.1829 5.12889C11.8558 3.54461 10.8797 2.51208 9.29879 2.09636C7.50616 1.62488 5.79445 1.834 4.26178 2.92695C2.65121 4.07566 1.81923 6.30211 2.30043 8.09383C2.41577 8.52306 2.61548 8.91047 2.91461 9.24212C3.09538 9.44237 3.13885 9.64896 3.05751 9.90329C2.97573 10.1576 2.92537 10.4217 2.85522 10.6798C2.76483 11.0114 2.56168 11.1107 2.23974 10.9743C1.24981 10.5552 0.642941 9.79049 0.328316 8.81119C-0.34914 6.70515 0.0399453 4.75754 1.36172 2.99708C2.57589 1.38027 4.25618 0.490109 6.24981 0.152973C7.67617 -0.0882602 9.09909 -0.0700938 10.4777 0.406459C12.7459 1.19057 14.2614 2.68614 14.8471 5.01271C15.0834 5.95145 15.0124 6.90245 14.8717 7.8471C14.672 9.19015 14.2256 10.4436 13.3838 11.5353C12.2901 12.9531 10.8427 13.7119 9.01817 13.7432C7.96024 13.7609 7.07834 13.338 6.26875 12.4204Z" fill="black"/>
</g>
<defs>
<clipPath id="clip0">
<rect width="15" height="19" fill="white"/>
</clipPath>
</defs>
</svg>
