<svg width="20" height="20" viewBox="0 0 20 20" fill="none" xmlns="http://www.w3.org/2000/svg">
<path fill-rule="evenodd" clip-rule="evenodd" d="M8.90583 0.00304959C9.11831 0.00271707 9.34689 0.00281964 9.59356 0.00293033L10.0001 0.00304959C13.2571 0.00304959 13.6431 0.0147397 14.9293 0.0731903C16.1186 0.127575 16.7641 0.326307 17.1941 0.493272C17.7634 0.714367 18.1692 0.978666 18.5959 1.40561C19.0229 1.83255 19.2872 2.23916 19.5088 2.80842C19.6757 3.23791 19.8747 3.8834 19.9288 5.07275C19.9873 6.35866 20 6.74494 20 10.0004C20 13.2558 19.9873 13.6421 19.9288 14.928C19.8745 16.1174 19.6757 16.7629 19.5088 17.1923C19.2877 17.7616 19.0229 18.1669 18.5959 18.5936C18.169 19.0206 17.7636 19.2849 17.1941 19.506C16.7646 19.6737 16.1186 19.8719 14.9293 19.9263C13.6434 19.9848 13.2571 19.9975 10.0001 19.9975C6.74291 19.9975 6.35688 19.9848 5.07097 19.9263C3.88162 19.8714 3.23613 19.6727 2.80588 19.5057C2.23662 19.2846 1.83001 19.0203 1.40307 18.5934C0.976124 18.1664 0.711826 17.7608 0.490222 17.1913C0.323257 16.7618 0.124271 16.1163 0.0701407 14.927C0.0116901 13.6411 0 13.2548 0 9.99733C0 6.73986 0.0116901 6.35561 0.0701407 5.0697C0.124525 3.88035 0.323257 3.23486 0.490222 2.80486C0.711318 2.23561 0.976124 1.82899 1.40307 1.40205C1.83001 0.975108 2.23662 0.71081 2.80588 0.489206C3.23587 0.321478 3.88162 0.123254 5.07097 0.0686159C6.19627 0.0177893 6.63236 0.00254133 8.90583 0V0.00304959ZM16.5115 2.02849C15.7034 2.02849 15.0477 2.68339 15.0477 3.49179C15.0477 4.29993 15.7034 4.9556 16.5115 4.9556C17.3197 4.9556 17.9753 4.29993 17.9753 3.49179C17.9753 2.68365 17.3197 2.02799 16.5115 2.02799V2.02849ZM3.73573 10.0032C3.73573 6.54375 6.54046 3.73894 9.99985 3.7388C13.4594 3.7388 16.2635 6.54367 16.2635 10.0032C16.2635 13.4627 13.4596 16.2663 10.0001 16.2663C6.5406 16.2663 3.73573 13.4627 3.73573 10.0032Z" fill="black"/>
<path fill-rule="evenodd" clip-rule="evenodd" d="M10.0001 5.93701C12.2456 5.93701 14.0662 7.75737 14.0662 10.0031C14.0662 12.2487 12.2456 14.0693 10.0001 14.0693C7.75431 14.0693 5.93396 12.2487 5.93396 10.0031C5.93396 7.75737 7.75431 5.93701 10.0001 5.93701V5.93701Z" fill="black"/>
</svg>
