<svg width="17" height="19" viewBox="0 0 17 19" fill="none" xmlns="http://www.w3.org/2000/svg">
<g >
<path d="M7.10622 6.94543C7.10622 8.01295 7.10622 9.04642 7.10622 10.003C6.4901 10.0392 5.88948 9.98983 5.33652 10.1249C3.97129 10.4599 3.11026 11.7306 3.20002 13.1418C3.28424 14.4609 4.32479 15.5899 5.66121 15.8117C7.01757 16.0369 8.3695 15.2966 8.86928 14.0161C8.99228 13.702 9.0499 13.3428 9.05101 13.0035C9.0632 8.88717 9.05877 4.76977 9.05877 0.653468C9.05877 0.43711 9.05877 0.220751 9.05877 0C10.1303 0 11.1532 0 12.1693 0C12.4209 3.07075 13.8271 4.74671 17.0019 4.82798C17.0019 5.89549 17.0019 6.9641 17.0019 8.09092C15.3043 8.16341 13.7595 7.71312 12.2524 6.86197C12.2314 7.04428 12.2026 7.17607 12.2037 7.30786C12.2203 9.13647 12.2214 10.9662 12.2635 12.7937C12.3378 16.0555 9.74803 18.8122 6.41585 18.9901C3.13686 19.1647 0.313315 16.675 0.0229819 13.3527C-0.250729 10.2139 2.14175 7.31006 5.3332 6.92017C5.69777 6.87514 6.069 6.86636 6.43691 6.86526C6.65299 6.86526 6.87019 6.91578 7.10622 6.94543Z" fill="black"/>
</g>
<defs>
<clipPath id="clip0">
<rect width="17" height="19" fill="white"/>
</clipPath>
</defs>
</svg>
