<svg width="227" height="250" viewBox="0 0 227 250" fill="none" xmlns="http://www.w3.org/2000/svg">
<path d="M226.594 129.614C226.502 129.391 226.26 129.094 226.075 129.085C224.58 129.039 223.086 129.057 221.471 129.057C221.471 153.921 221.471 178.646 221.471 203.371C221.146 203.158 220.998 202.916 220.868 202.666C211.281 184.438 201.702 166.219 192.124 147.991C188.932 141.93 185.748 135.86 182.546 129.8C182.379 129.484 182.073 129.039 181.813 129.029C180.291 128.955 178.759 128.992 177.247 128.992C177.247 164.056 177.247 198.99 177.247 233.915C178.945 233.915 180.569 233.915 182.286 233.915C182.286 206.193 182.286 178.526 182.286 150.859C182.342 150.849 182.398 150.831 182.463 150.822C197.108 178.674 211.754 206.527 226.39 234.389C226.474 234.37 226.548 234.352 226.631 234.333C226.631 233.98 226.631 233.637 226.631 233.284C226.631 198.981 226.631 164.678 226.631 130.375C226.622 130.125 226.687 129.837 226.594 129.614Z" fill="#1E1E1C"/>
<path d="M137.189 130.236C132.057 164.845 126.943 199.352 121.811 233.934C123.045 233.934 124.177 233.934 125.356 233.934C126.85 223.752 128.344 213.608 129.839 203.427C136.456 203.427 142.981 203.427 149.543 203.427C150.99 213.636 152.438 223.79 153.868 233.915C157.227 233.915 160.448 233.915 163.77 233.915C158.703 199.297 153.645 164.752 148.587 130.236C144.726 130.236 141.032 130.236 137.189 130.236ZM130.906 196.299C133.811 176.744 136.707 157.253 139.602 137.763C139.667 137.754 139.732 137.744 139.797 137.744C142.693 157.225 145.589 176.707 148.503 196.308C142.563 196.299 136.781 196.299 130.906 196.299Z" fill="#1E1E1C"/>
<path d="M151.64 50.4463C147.538 44.9797 143.343 39.5874 139.287 34.093C136.048 29.703 133.236 25.081 132.734 19.4474C132.391 15.5586 132.985 11.8647 135.305 8.62562C137.236 5.92482 139.844 4.34703 143.241 4.24494C147.937 4.10572 152.021 5.69279 155.566 8.71843C158.174 10.9459 160.067 13.7024 161.33 16.3753C163.232 14.6676 165.2 12.8857 167.186 11.1315C167.576 10.7881 167.641 10.222 167.344 9.79504C161.692 1.59054 151.278 -1.94556 141.607 1.08008C125.495 6.11044 119.286 26.1948 129.588 39.8566C136.577 49.1191 143.519 58.4002 150.48 67.6813C153.246 71.3659 156.076 75.0227 157.84 79.3291C159.845 84.2295 160.299 89.2042 158.155 94.1789C156.206 98.6988 152.169 101.205 147.408 100.843C142.916 100.499 139.027 98.7081 135.769 95.5711C133.56 93.4457 131.918 90.9212 130.581 88.1276C128.771 90.0117 126.999 91.8586 125.245 93.6777C124.743 94.1975 124.688 95.0049 125.115 95.5896C130.869 103.479 140.735 106.838 150.137 104.091C166.304 99.367 172.922 79.4683 162.889 65.6395C159.204 60.5442 155.427 55.486 151.64 50.4463Z" fill="#1E1E1C"/>
<path d="M207.93 67.6813C210.696 71.3659 213.527 75.0227 215.29 79.3291C217.295 84.2295 217.749 89.2042 215.605 94.1789C213.656 98.6988 209.619 101.205 204.858 100.843C200.366 100.499 196.477 98.7081 193.219 95.5711C191.011 93.4457 189.368 90.9212 188.031 88.1276C186.221 90.0117 184.449 91.8586 182.695 93.6777C182.193 94.1974 182.138 95.0049 182.565 95.5896C188.319 103.479 198.185 106.838 207.587 104.091C223.754 99.367 230.372 79.4683 220.339 65.6395C216.636 60.5349 212.858 55.4859 209.081 50.437C204.979 44.9704 200.784 39.5781 196.728 34.0837C193.489 29.6937 190.676 25.0717 190.175 19.4381C189.832 15.5493 190.426 11.8554 192.746 8.61634C194.677 5.91553 197.285 4.33774 200.681 4.23565C205.378 4.09644 209.461 5.68351 213.007 8.70915C215.615 10.9366 217.508 13.6931 218.77 16.3661C220.673 14.6583 222.641 12.8764 224.627 11.1222C225.017 10.7788 225.082 10.2127 224.785 9.78576C219.132 1.58125 208.719 -1.95485 199.048 1.07079C182.936 6.10116 176.727 26.1855 187.029 39.8473C194.018 49.1191 200.969 58.4002 207.93 67.6813Z" fill="#1E1E1C"/>
<path d="M106.998 230.388C97.9952 230.398 88.9926 230.398 79.9992 230.444C79.0525 230.444 78.7833 230.175 78.7926 229.228C78.8205 214.351 78.8112 199.473 78.8112 184.595C78.8112 184.252 78.8112 183.899 78.8112 183.454C82.1895 183.454 85.4286 183.389 88.6677 183.472C91.8976 183.565 95.1181 183.807 98.4036 183.983C98.4036 182.349 98.4036 180.725 98.4036 179.12C95.1274 179.324 91.9068 179.593 88.6863 179.695C85.4565 179.797 82.2174 179.714 78.904 179.714C78.904 164.261 78.904 148.817 78.904 133.271C88.7327 133.271 98.4779 133.271 108.362 133.271C108.269 132.037 108.195 130.923 108.112 129.781C94.9974 129.781 82.0132 129.781 68.9825 129.781C68.9825 164.53 68.9825 199.232 68.9825 233.934C82.0503 233.934 95.0346 233.934 108.112 233.934C108.195 232.774 108.279 231.651 108.372 230.388C107.824 230.388 107.406 230.388 106.998 230.388Z" fill="#1E1E1C"/>
<path d="M79.9435 101.084C78.9968 101.084 78.7277 100.824 78.7277 99.8775C78.7555 84.9999 78.7369 70.1223 78.7369 55.2354C78.7369 54.892 78.7648 54.5486 78.7833 54.1495C82.1338 54.1495 85.3729 54.0845 88.612 54.168C91.8326 54.2516 95.0531 54.4836 98.3201 54.6507C98.3201 52.9986 98.3201 51.3466 98.3201 49.676C91.7955 50.5298 85.2987 50.5113 78.7369 50.4277C78.7369 49.9358 78.7369 49.5832 78.7369 49.2212C78.7369 34.5663 78.7369 19.9207 78.7369 5.26585C78.7369 3.92937 78.7369 3.92009 80.1013 3.92009C89.1318 3.92009 98.1716 3.92009 107.202 3.92009C107.573 3.92009 107.954 3.92009 108.353 3.92009C108.251 2.66714 108.158 1.57197 108.056 0.439674C94.9882 0.439674 82.0039 0.439674 68.9454 0.439674C68.9454 35.1882 68.9454 69.8624 68.9454 104.564C82.0039 104.564 94.9882 104.564 108.056 104.564C108.158 103.404 108.251 102.281 108.362 101.047C107.907 101.047 107.527 101.047 107.137 101.047C98.0788 101.056 89.0111 101.047 79.9435 101.084Z" fill="#1E1E1C"/>
<path d="M1.00764 3.00126C1.16542 3.70663 1.51811 3.90153 2.23275 3.90153C7.07749 3.8644 11.9222 3.88297 16.767 3.88297C19.4492 3.88297 22.1315 3.8644 24.823 3.88297C26.0202 3.89225 26.6142 4.5048 26.6699 5.69278C26.6885 6.01762 26.6699 6.34246 26.6699 6.67658C26.6699 38.8542 26.6699 71.0411 26.6699 103.219C26.6699 103.655 26.6699 104.1 26.6699 104.537C30.0204 104.537 33.2224 104.537 36.5172 104.537C36.5172 104.073 36.5172 103.655 36.5172 103.247C36.5172 72.6374 36.5172 42.0283 36.5172 11.4192C36.5172 9.52588 36.5172 7.62325 36.5265 5.72991C36.5357 4.76467 36.9441 3.98506 37.9557 3.92937C40.276 3.80872 42.6056 3.78087 44.9351 3.79016C50.1326 3.79944 55.33 3.85512 60.5367 3.8644C60.7687 3.8644 61.1492 3.67878 61.2142 3.49316C61.5576 2.51864 61.8268 1.51628 62.1516 0.421112C41.4826 0.421112 20.9435 0.421112 0.292999 0.421112C0.543589 1.32138 0.822023 2.1474 1.00764 3.00126Z" fill="#1E1E1C"/>
<path d="M36.5357 134.774V129.781H36.4893C34.4568 129.781 32.4613 129.781 30.4752 129.781C29.2037 129.781 27.9414 129.781 26.6699 129.781C26.6699 129.902 26.6699 130.023 26.6699 130.143V141.049C26.6699 170.015 26.6792 198.981 26.6421 227.948C26.6421 230.88 26.5493 233.934 25.9553 236.82C25.3891 239.558 24.0805 242.064 21.8809 243.846L19.6905 245.619L17.9364 247.048L19.9875 249.86C23.1245 247.791 26.2151 245.6 29.0737 243.159C31.8209 240.82 34.2897 238.444 35.5241 234.946C36.5914 231.92 36.5821 228.449 36.5821 225.265C36.5914 197.19 36.5636 169.115 36.5357 141.039C36.545 141.039 36.545 137.782 36.5357 134.774Z" fill="#1E1E1C"/>
</svg>
